<svg width="513" height="348" viewBox="0 0 513 348" fill="none" xmlns="http://www.w3.org/2000/svg">
<path d="M495.935 199.337C511.052 149.386 503.265 96.454 477.11 57.872C476.626 56.583 475.86 55.496 474.864 54.652C466.919 43.616 457.419 33.845 446.471 25.778C391.8 -15.008 312.83 -5.46302 231.257 50.076C209.562 64.829 177.454 71.771 143.61 78.713C73.318 92.598 -6.519 109.954 0.423002 208.015C5.255 272.443 59.919 310.621 125.562 330.374H87.203C81.996 330.374 78.525 333.845 78.525 339.052C78.525 344.259 81.996 347.73 87.203 347.73H434.322C439.529 347.73 443 344.259 443 339.052C443 333.845 439.529 330.374 434.322 330.374H361.589C429.189 307.236 477.275 261.536 495.935 199.337ZM425.643 276.468V252.273C425.643 247.066 422.172 243.595 416.965 243.595C411.758 243.595 408.287 247.066 408.287 252.273V286.985C408.287 287.804 408.382 288.575 408.547 289.302C395.398 298.098 380.796 305.617 364.897 311.741V278.308C364.897 273.101 361.426 269.63 356.219 269.63C351.012 269.63 347.541 273.101 347.541 278.308V317.714C324.561 324.722 299.264 329.048 272.043 330.376H269.44V304.34C269.44 299.133 265.969 295.662 260.762 295.662C255.555 295.662 252.084 299.133 252.084 304.34V330.374H228.51C190.704 328.458 149.291 321.589 113.237 308.247V260.95C113.237 255.743 109.766 252.272 104.559 252.272C99.352 252.272 95.881 255.743 95.881 260.95V301.107C83.096 295.277 71.269 288.507 60.892 280.697C61.068 279.949 61.169 279.153 61.169 278.306V226.238C61.169 221.031 57.698 217.56 52.491 217.56C47.284 217.56 43.813 221.031 43.813 226.238V265.438C28.939 249.484 19.397 230.202 17.779 207.146C14.662 157.278 36.737 132.29 69.847 117.097V130.78C69.847 135.987 73.318 139.458 78.525 139.458C83.732 139.458 87.203 135.987 87.203 130.78V110.264C105.558 104.033 126.12 99.655 147.081 95.2C159.261 92.824 171.236 90.447 182.661 87.652V122.101C182.661 127.308 186.132 130.779 191.339 130.779C196.546 130.779 200.017 127.308 200.017 122.101V82.882C215.077 78.201 228.705 72.278 239.936 63.959C271.529 43.095 301.894 29.194 330.187 22.533V61.355C330.187 66.562 333.658 70.033 338.865 70.033C344.072 70.033 347.543 66.562 347.543 61.355V19.332C354.337 18.43 360.997 17.965 367.502 17.965C382.078 17.965 395.837 20.145 408.476 24.65C408.355 25.281 408.288 25.945 408.288 26.643V61.355C408.288 66.562 411.759 70.033 416.966 70.033C422.173 70.033 425.644 66.562 425.644 61.355V32.646C429.239 34.753 432.719 37.08 436.058 39.66C445.394 46.569 453.517 54.931 460.356 64.387V96.066C460.356 101.273 463.827 104.744 469.034 104.744C473.704 104.744 476.969 101.946 477.594 97.613C487.998 127.142 489.125 161.605 479.447 194.995C469.899 227.177 451.415 254.744 425.643 276.468Z" fill="#202020"/>
<path d="M43.813 330.374H26.457C21.25 330.374 17.779 333.845 17.779 339.052C17.779 344.259 21.25 347.73 26.457 347.73H43.813C49.02 347.73 52.491 344.259 52.491 339.052C52.491 333.845 49.02 330.374 43.813 330.374Z" fill="#202020"/>
<path d="M503.745 330.374H469.033C463.826 330.374 460.355 333.845 460.355 339.052C460.355 344.259 463.826 347.73 469.033 347.73H503.745C508.952 347.73 512.423 344.259 512.423 339.052C512.423 333.845 508.952 330.374 503.745 330.374Z" fill="#202020"/>
<path d="M104.559 208.883C99.352 208.883 95.881 212.354 95.881 217.561V226.239C95.881 231.446 99.352 234.917 104.559 234.917C109.766 234.917 113.237 231.446 113.237 226.239V217.561C113.236 212.354 109.765 208.883 104.559 208.883Z" fill="#202020"/>
<path d="M147.948 252.272C142.741 252.272 139.27 255.743 139.27 260.95V278.306C139.27 283.513 142.741 286.984 147.948 286.984C153.155 286.984 156.626 283.513 156.626 278.306V260.95C156.626 255.744 153.155 252.272 147.948 252.272Z" fill="#202020"/>
<path d="M191.338 208.883C186.131 208.883 182.66 212.354 182.66 217.561V260.951C182.66 266.158 186.131 269.629 191.338 269.629C196.545 269.629 200.016 266.158 200.016 260.951V217.561C200.016 212.354 196.545 208.883 191.338 208.883Z" fill="#202020"/>
<path d="M295.474 139.459C290.267 139.459 286.796 142.93 286.796 148.137V165.493C286.796 170.7 290.267 174.171 295.474 174.171C300.681 174.171 304.152 170.7 304.152 165.493V148.137C304.152 142.93 300.681 139.459 295.474 139.459Z" fill="#202020"/>
<path d="M295.474 191.527C290.267 191.527 286.796 194.998 286.796 200.205V269.629C286.796 274.836 290.267 278.307 295.474 278.307C300.681 278.307 304.152 274.836 304.152 269.629V200.205C304.152 194.998 300.681 191.527 295.474 191.527Z" fill="#202020"/>
<path d="M469.033 122.103C463.826 122.103 460.355 125.574 460.355 130.781V139.459C460.355 144.666 463.826 148.137 469.033 148.137C474.24 148.137 477.711 144.666 477.711 139.459V130.781C477.711 125.574 474.24 122.103 469.033 122.103Z" fill="#202020"/>
</svg>
